<?xml version="1.0" encoding="UTF-8"?>
<svg version="1.1" xmlns="http://www.w3.org/2000/svg" width="1440" height="369">
<path d="M0 0 C0.82594666 -0.0061734 1.65189331 -0.0123468 2.50286865 -0.01870728 C25.0321635 -0.12680365 48.02159871 2.91098636 65.015625 19.0078125 C77.07043214 31.75966631 76.7509998 49.09421162 76.72319031 65.64759636 C76.7186275 68.60679203 76.732946 71.56541575 76.75158691 74.52455139 C76.787995 80.80802564 76.80201434 87.09143592 76.8125 93.375 C76.82467388 100.66575749 76.84660362 107.95622875 76.89250183 115.2468586 C76.90585558 118.12969561 76.90194247 121.01214972 76.89709473 123.89500427 C76.93114611 135.07477556 78.03927501 145.50025446 80.3125 156.4375 C80.6425 158.4175 80.9725 160.3975 81.3125 162.4375 C61.5125 162.4375 41.7125 162.4375 21.3125 162.4375 C19.0625 151.1875 19.0625 151.1875 18.6875 146.8125 C18.57535156 145.55566406 18.57535156 145.55566406 18.4609375 144.2734375 C18.41195312 143.66757812 18.36296875 143.06171875 18.3125 142.4375 C17.92320312 142.93378906 17.53390625 143.43007813 17.1328125 143.94140625 C8.11180969 154.89548109 -3.83566804 161.6784169 -17.6875 164.4375 C-22.34234236 164.8423581 -26.95510954 164.85805991 -31.625 164.8125 C-32.81029297 164.82410156 -33.99558594 164.83570313 -35.21679688 164.84765625 C-45.15457055 164.81494827 -54.81647607 163.60304339 -63.5625 158.5625 C-64.82707031 157.85480469 -64.82707031 157.85480469 -66.1171875 157.1328125 C-76.15164812 150.51433848 -84.08182485 140.32132686 -86.6875 128.4375 C-86.914375 127.468125 -87.14125 126.49875 -87.375 125.5 C-88.81102728 111.42693262 -86.23044832 99.20730263 -77.64453125 87.69921875 C-58.33076348 65.17218696 -26.58625012 61.11547827 1.3125 58.4375 C6.32955885 58.13330145 11.29370755 58.12545073 16.3125 58.4375 C15.91556272 56.32952247 15.49420804 54.22613223 15.0625 52.125 C14.83046875 50.95324219 14.5984375 49.78148437 14.359375 48.57421875 C13.20781812 45.12384496 12.44386468 44.16210499 9.3125 42.4375 C5.41679113 41.13893038 1.68719608 41.17425864 -2.375 41.125 C-3.15294922 41.09599609 -3.93089844 41.06699219 -4.73242188 41.03710938 C-10.53636702 40.97418086 -14.83479394 42.20522685 -19.6875 45.4375 C-22.91315593 48.74804162 -23.91969709 51.01799273 -25.6875 55.4375 C-44.4975 53.7875 -63.3075 52.1375 -82.6875 50.4375 C-80.78381624 35.20802988 -72.91501469 23.71252608 -60.9921875 14.3125 C-54.36374076 9.82911912 -47.31780012 6.7840398 -39.6875 4.4375 C-39.0598877 4.23995117 -38.43227539 4.04240234 -37.78564453 3.83886719 C-25.39822654 0.14410888 -12.8153065 0.04069936 0 0 Z M-19.1875 101 C-22.22053833 105.92868728 -23.20040404 109.59039393 -22.6875 115.4375 C-20.93888081 120.22319464 -19.24458538 122.23818341 -14.6875 124.4375 C-6.58207282 125.52409712 1.43231451 125.16579769 8.3125 120.4375 C14.07845885 115.50945143 15.34474059 108.97033824 16.16015625 101.703125 C16.45723271 97.28506488 16.38571 92.86263779 16.3125 88.4375 C3.60364451 88.0089264 -10.13792002 91.72418052 -19.1875 101 Z " fill="#30AF5B" transform="translate(772.6875,128.5625)"/>
<path d="M0 0 C20.79 0 41.58 0 63 0 C63.03738281 7.65445313 63.07476562 15.30890625 63.11328125 23.1953125 C63.14355688 28.04429337 63.17470216 32.89323735 63.20898438 37.7421875 C63.26331655 45.43878327 63.31442644 53.13530606 63.34643555 60.83203125 C63.37244314 67.03724025 63.4128281 73.24220432 63.46318626 79.44726181 C63.47987209 81.81469552 63.49137565 84.18217162 63.49761391 86.54965591 C63.50723602 89.8655592 63.53527398 93.18083342 63.56762695 96.49658203 C63.56619186 97.4755394 63.56475677 98.45449677 63.5632782 99.46311951 C63.6355789 104.70230713 64.00771974 108.49459312 67 113 C71.78449267 115.39224634 78.36199873 114.424667 83.375 113.125 C87.8532012 109.4997895 90.42230147 104.12732885 91.46692848 98.47231674 C91.64806333 95.83456393 91.68452583 93.23706119 91.65942383 90.59326172 C91.66990753 89.60669083 91.68039124 88.62011993 91.69119263 87.60365295 C91.71973897 84.37866979 91.71367494 81.15477331 91.70703125 77.9296875 C91.7201586 75.67952136 91.73546599 73.42936699 91.75285339 71.17922974 C91.79259436 65.28395329 91.80288687 59.38898589 91.80688477 53.49359131 C91.81788365 46.40564487 91.865745 39.31786153 91.90737152 32.2300415 C91.96636869 21.48655624 91.97876695 10.74392502 92 0 C112.46 0 132.92 0 154 0 C154 52.47 154 104.94 154 159 C134.86 159 115.72 159 96 159 C95.67 151.74 95.34 144.48 95 137 C93.02 139.97 91.04 142.94 89 146 C81.13340774 154.90129718 69.95319245 160.37017991 58.0847168 161.20507812 C54.76235218 161.30438174 51.44877679 161.32199651 48.125 161.3125 C46.44470703 161.33666992 46.44470703 161.33666992 44.73046875 161.36132812 C32.15033219 161.36866776 21.21453402 158.03670379 11.8125 149.4375 C1.62358122 138.65880349 -0.31762324 125.79288247 -0.22705078 111.59545898 C-0.22734283 110.384702 -0.22763489 109.17394501 -0.22793579 107.92649841 C-0.22678792 104.63367856 -0.2168141 101.34103261 -0.20278788 98.0482471 C-0.19021586 94.59695627 -0.18910495 91.14566139 -0.18673706 87.6943512 C-0.18054119 81.17099728 -0.16415623 74.64771106 -0.14403808 68.12438685 C-0.11941733 59.96249489 -0.1085263 51.80059175 -0.09765625 43.63867188 C-0.07822333 29.0923953 -0.03815136 14.54626625 0 0 Z " fill="#0E0731" transform="translate(208,132)"/>
<path d="M0 0 C16.39437095 12.65832239 25.642099 30.14746231 29.4375 50.25 C30.38900237 59.8515239 30.125 69.53894477 30.125 79.1875 C-4.855 79.1875 -39.835 79.1875 -75.875 79.1875 C-73.91442874 93.1292983 -73.91442874 93.1292983 -65.6875 103.6875 C-58.42070323 106.75296606 -48.74579773 106.31369601 -41.171875 104.5625 C-35.02352667 101.93419843 -32.22161656 96.52063887 -29.81201172 90.55639648 C-29.50279785 89.77466064 -29.19358398 88.9929248 -28.875 88.1875 C-15.97383998 87.9363599 -3.23471055 88.72672938 9.625 89.6875 C11.62365989 89.83255617 13.62235771 89.97709071 15.62109375 90.12109375 C20.45618633 90.47056672 25.29071479 90.8270377 30.125 91.1875 C29.82161958 92.78642607 29.51369245 94.38448987 29.20385742 95.98217773 C29.03287033 96.87218979 28.86188324 97.76220184 28.68571472 98.67918396 C26.69668727 107.57695186 21.06393743 115.450978 15.125 122.1875 C14.48046875 122.92613281 13.8359375 123.66476562 13.171875 124.42578125 C-1.1145282 139.74398023 -21.27793157 147.7533381 -42.05732727 148.57296753 C-45.60182872 148.65469575 -49.14235418 148.65590599 -52.6875 148.625 C-53.43068481 148.62195862 -54.17386963 148.61891724 -54.9395752 148.61578369 C-79.69915925 148.46614882 -101.20305966 141.9965323 -119.6875 124.875 C-134.65225304 108.73876377 -142.36332851 88.05852162 -142.0234375 66.1015625 C-140.77535459 41.59972431 -131.98944676 20.78463682 -114.25 3.65234375 C-82.99842418 -23.46025849 -33.23900035 -22.73510277 0 0 Z M-69.875 26.1875 C-74.88331135 32.53840083 -75.875 39.28920215 -75.875 47.1875 C-61.685 47.1875 -47.495 47.1875 -32.875 47.1875 C-32.875 39.55190132 -33.28448001 32.57482032 -38.30078125 26.4453125 C-44.41322556 21.10679524 -50.60616194 20.68162156 -58.41796875 20.8125 C-63.28172949 21.34009438 -66.42502173 22.72880966 -69.875 26.1875 Z " fill="#30AF5B" transform="translate(1190.875,144.8125)"/>
<path d="M0 0 C22.77 0 45.54 0 69 0 C71.619375 4.95 74.23875 9.9 76.9375 15 C78.58052696 18.10297204 80.22365847 21.20588774 81.8671875 24.30859375 C84.41412397 29.11680168 86.96073105 33.92518117 89.50488281 38.73486328 C91.48108965 42.47081249 93.45903454 46.20583627 95.43826294 49.94018555 C96.18783154 51.35520765 96.93675328 52.7705726 97.68502808 54.1862793 C98.72713123 56.15763883 99.77148543 58.12778915 100.81640625 60.09765625 C101.70501343 61.77613647 101.70501343 61.77613647 102.61157227 63.48852539 C103.77583926 65.86808017 103.77583926 65.86808017 105 67 C107.06612474 63.04355113 109.12812013 59.08496307 111.1875 55.125 C111.50068176 54.5229776 111.81386353 53.9209552 112.13653564 53.3006897 C117.33754142 43.29413718 122.42225777 33.23603382 127.38354492 23.10791016 C131.30092521 15.18032372 135.58736833 7.72210543 140 0 C159.14 0 178.28 0 198 0 C193.0371677 9.9256646 188.06424751 19.79450423 182.8125 29.5625 C182.49263123 30.15905396 182.17276245 30.75560791 181.84320068 31.37023926 C177.04299214 40.31861941 172.0960366 49.17541553 167.05810547 57.9921875 C161.65190935 67.50840524 156.53659354 77.17504723 151.43798828 86.85839844 C151.10859253 87.47982727 150.77919678 88.1012561 150.43981934 88.74151611 C149.75604313 90.04531965 149.08464282 91.35567325 148.42443848 92.67156982 C146.49336843 96.45873318 144.42191269 99.84305916 141.84521484 103.22851562 C128.77010416 121.55367999 131.40945515 143.65666386 131.71246338 165.1583252 C131.78667525 171.51786011 131.76999613 177.87777285 131.76914978 184.23765564 C131.77775139 193.82712333 131.89932821 203.40907556 132 213 C110.55 213 89.1 213 67 213 C67.10183594 206.66039062 67.20367187 200.32078125 67.30859375 193.7890625 C67.3397222 189.71452436 67.36629756 185.64092522 67.37695312 181.56640625 C67.3941985 175.13222624 67.42609446 168.70103621 67.55883789 162.26806641 C68.28638696 127.70975393 68.28638696 127.70975393 52.93688965 97.62171936 C49.57293116 93.06835974 46.89163928 88.1178825 44.125 83.1875 C38.21331085 73.05541785 32.2767855 62.9378401 26.34106445 52.81982422 C21.09076302 43.86882343 15.85726709 34.90817425 10.640625 25.9375 C9.85365234 24.58591797 9.85365234 24.58591797 9.05078125 23.20703125 C8.5501416 22.33900879 8.04950195 21.47098633 7.53369141 20.57666016 C6.48909027 18.82169034 5.40049399 17.09234146 4.27490234 15.38818359 C3.72398926 14.5420752 3.17307617 13.6959668 2.60546875 12.82421875 C2.1055542 12.08647217 1.60563965 11.34872559 1.09057617 10.58862305 C0 8 0 8 0 0 Z " fill="#0E0731" transform="translate(0,78)"/>
<path d="M0 0 C49.5 0 99 0 150 0 C150 17.49 150 34.98 150 53 C135.48 53 120.96 53 106 53 C106 105.8 106 158.6 106 213 C85.21 213 64.42 213 43 213 C43 160.2 43 107.4 43 53 C28.81 53 14.62 53 0 53 C0 35.51 0 18.02 0 0 Z " fill="#30AF5B" transform="translate(391,78)"/>
<path d="M0 0 C21.45 0 42.9 0 65 0 C67.2958779 5.73969475 69.51751969 11.30107559 71.47363281 17.13037109 C71.68879547 17.76914185 71.90395813 18.4079126 72.12564087 19.06604004 C72.82123696 21.13414706 73.51248039 23.20367214 74.203125 25.2734375 C74.69056843 26.72932739 75.17809848 28.18518828 75.66571045 29.64102173 C76.67964974 32.67094799 77.69115718 35.70167353 78.70117188 38.73291016 C79.99521341 42.61523943 81.29754168 46.49473447 82.60191727 50.37360191 C83.6080029 53.36964549 84.60864378 56.36748635 85.60774994 59.3658638 C86.0858583 60.79783178 86.56590852 62.22915296 87.04795074 63.65980148 C87.71899268 65.65334856 88.38239621 67.64928221 89.04394531 69.64599609 C89.42270813 70.77943451 89.80147095 71.91287292 90.19171143 73.08065796 C91 76 91 76 91 80 C91.66 80 92.32 80 93 80 C93.22292725 78.84298584 93.44585449 77.68597168 93.67553711 76.49389648 C95.30146863 69.20191256 97.81318149 62.1701664 100.19140625 55.09765625 C100.70216895 53.56843083 101.2125746 52.03908611 101.72264099 50.5096283 C102.78655343 47.32246938 103.85338624 44.13630954 104.92260742 40.95092773 C106.29423966 36.8644703 107.66057142 32.77626601 109.02501011 28.68740177 C110.07626914 25.53777385 111.12922543 22.38871572 112.18281364 19.23986626 C112.68745693 17.73163601 113.19181837 16.22331142 113.69589424 14.71489143 C114.39798679 12.61546793 115.10210569 10.51673581 115.80688477 8.41821289 C116.20722427 7.22402237 116.60756378 6.02983185 117.02003479 4.79945374 C118 2 118 2 119 0 C134.18 0 149.36 0 165 0 C156.3524432 24.58376861 147.40415742 49.04884152 138.39355469 73.50146484 C134.82651838 83.18329051 131.27004109 92.86899541 127.71310425 102.55453491 C126.57527485 105.65271554 125.4372103 108.75080969 124.29907227 111.84887695 C118.52615962 127.56351943 112.7609076 143.28095212 107 159 C91.49 159 75.98 159 60 159 C55.49932848 148.87348908 55.49932848 148.87348908 53.57177734 143.75512695 C53.13452332 142.59778549 52.69726929 141.44044403 52.24676514 140.24803162 C51.77640949 138.99481143 51.30613633 137.74156028 50.8359375 136.48828125 C50.32972411 135.14474757 49.82330971 133.8012896 49.31671143 132.457901 C47.95038736 128.83225697 46.58767208 125.2052667 45.22583771 121.57793427 C44.37227996 119.30525763 43.51770223 117.03296719 42.66278076 114.76080322 C33.59265034 90.65362726 24.59038098 66.52131107 15.625 42.375 C15.34422356 41.6187949 15.06344711 40.8625898 14.77416229 40.08346939 C12.90291104 35.04307677 11.03303673 30.00217484 9.1640625 24.9609375 C8.92727028 24.32246447 8.69047806 23.68399143 8.44651031 23.02617073 C7.77336117 21.21078707 7.1007831 19.39519169 6.42822266 17.57958984 C6.05363922 16.56859222 5.67905579 15.5575946 5.29312134 14.51596069 C3.51533809 9.68221785 1.76007907 4.84021744 0 0 Z " fill="#30AF5B" transform="translate(871,132)"/>
<path d="M0 0 C20.46 0 40.92 0 62 0 C62 70.29 62 140.58 62 213 C41.54 213 21.08 213 0 213 C0 142.71 0 72.42 0 0 Z " fill="#30AF5B" transform="translate(1258,78)"/>
<path d="M0 0 C0 18.48 0 36.96 0 56 C-7.26 56 -14.52 56 -22 56 C-30.97644429 59.9895308 -36.14296129 62.96295113 -40 72 C-42.87728238 81.161376 -42.35058405 90.98171461 -42.4140625 100.4765625 C-42.43280126 102.25589875 -42.45237663 104.03522637 -42.4727478 105.81454468 C-42.52378916 110.46684651 -42.5635636 115.11917707 -42.60089111 119.77160645 C-42.64819531 125.37026781 -42.70967172 130.96878978 -42.76873779 136.56733704 C-42.8566082 145.04483422 -42.9266168 153.52230933 -43 162 C-62.8 162 -82.6 162 -103 162 C-103 109.53 -103 57.06 -103 3 C-85.84 3 -68.68 3 -51 3 C-50.505 15.375 -50.505 15.375 -50 28 C-49.01 25.855 -48.02 23.71 -47 21.5 C-41.73124781 10.74524029 -35.26792569 5.24140014 -24 1 C-16.40394839 -1.5320172 -8.00694143 0 0 0 Z " fill="#30AF5B" transform="translate(662,129)"/>
<path d="M0 0 C19.8 0 39.6 0 60 0 C60 19.14 60 38.28 60 58 C40.2 58 20.4 58 0 58 C0 38.86 0 19.72 0 0 Z " fill="#30AF5B" transform="translate(1362,233)"/>
</svg>
